HIERARCHY
ROOT Hips
{
  OFFSET 57.8838 95.319 338.509
  CHANNELS 6 Xposition Yposition Zposition Zrotation Xrotation Yrotation
  JOINT LeftUpLeg
  {
    OFFSET 8.64259 1.95398 -2.38835
    CHANNELS 3 Zrotation Xrotation Yrotation
    JOINT LeftLeg
    {
      OFFSET 43.7702 0 0
      CHANNELS 3 Zrotation Xrotation Yrotation
      JOINT LeftFoot
      {
        OFFSET 40.6238 0 0
        CHANNELS 3 Zrotation Xrotation Yrotation
        JOINT LeftToeBase
        {
          OFFSET 12.7242 0 0
          CHANNELS 3 Zrotation Xrotation Yrotation
          End Site
          {
            OFFSET 0 0 0
          }
        }
      }
    }
  }
  JOINT RightUpLeg
  {
    OFFSET -8.2249 1.95398 -2.59336
    CHANNELS 3 Zrotation Xrotation Yrotation
    JOINT RightLeg
    {
      OFFSET 43.5653 0 0
      CHANNELS 3 Zrotation Xrotation Yrotation
      JOINT RightFoot
      {
        OFFSET 40.6238 0 0
        CHANNELS 3 Zrotation Xrotation Yrotation
        JOINT RightToeBase
        {
          OFFSET 12.7242 0 0
          CHANNELS 3 Zrotation Xrotation Yrotation
          End Site
          {
            OFFSET 0 0 0
          }
        }
      }
    }
  }
  JOINT Spine
  {
    OFFSET 0.165834 0.87714 6.61349
    CHANNELS 3 Zrotation Xrotation Yrotation
    JOINT Spine1
    {
      OFFSET 7.38963 1.71661e-005 0
      CHANNELS 3 Zrotation Xrotation Yrotation
      JOINT Spine2
      {
        OFFSET 11.9445 1.14441e-005 0
        CHANNELS 3 Zrotation Xrotation Yrotation
        JOINT Spine3
        {
          OFFSET 14.7254 4.19617e-005 0
          CHANNELS 3 Zrotation Xrotation Yrotation
          JOINT Spine4
          {
            OFFSET 10.9679 0 0
            CHANNELS 3 Zrotation Xrotation Yrotation
            JOINT RightShoulder
            {
              OFFSET 2.46616 -1.6653 3.69651
              CHANNELS 3 Zrotation Xrotation Yrotation
              JOINT RightArm
              {
                OFFSET 13.0012 0 0
                CHANNELS 3 Zrotation Xrotation Yrotation
                JOINT RightForeArm
                {
                  OFFSET 28.7848 1.62311e-005 0
                  CHANNELS 3 Zrotation Xrotation Yrotation
                  JOINT RightHand
                  {
                    OFFSET 26.5688 1.62095e-005 0
                    CHANNELS 3 Zrotation Xrotation Yrotation
                    End Site
                    {
                      OFFSET 0 0 0
                    }
                  }
                }
              }
            }
            JOINT LeftShoulder
            {
              OFFSET 2.38034 -1.29275 -3.7523
              CHANNELS 3 Zrotation Xrotation Yrotation
              JOINT LeftArm
              {
                OFFSET 16.3182 6.07031e-005 0
                CHANNELS 3 Zrotation Xrotation Yrotation
                JOINT LeftForeArm
                {
                  OFFSET 27.0901 0 0
                  CHANNELS 3 Zrotation Xrotation Yrotation
                  JOINT LeftHand
                  {
                    OFFSET 24.5451 1.51738e-005 0
                    CHANNELS 3 Zrotation Xrotation Yrotation
                    End Site
                    {
                      OFFSET 0 0 0
                    }
                  }
                }
              }
            }
            JOINT Neck
            {
              OFFSET 5.0226 -0.0266342 0
              CHANNELS 3 Zrotation Xrotation Yrotation
              JOINT Head
              {
                OFFSET 6.69364 2.86102e-005 0
                CHANNELS 3 Zrotation Xrotation Yrotation
                End Site
                {
                  OFFSET 0 0 0
                }
              }
            }
          }
        }
      }
    }
  }
}
MOTION
Frames:	15
Frame Time:	0.0416667
107.908 91.2014 -110.649 -73.0994 -48.3338 -75.6924 -179.296 3.05163 86.6907 -25.4434 20.2436 2.99261 64.1101 17.1754 21.83 58.7386 15.0376 11.248 164.108 50.1942 94.3019 -55.2757 -7.82029 4.62148 70.7473 -7.57383 10.3296 42.2075 -20.064 -7.62061 -0.668524 9.60343 -90.1976 7.66296 -1.42042 -0.315284 -4.00729 -1.43294 -0.25245 -26.5468 -1.26001 -0.727671 -6.53418 -1.25999 -0.727647 95.9384 -49.6505 -91.7123 24.5627 1.45169 -12.9944 4.21165 -8.33848 -5.07177 -9.444 -0.549037 1.55966 -86.4214 -51.9877 84.3982 -8.50261 -7.85713 -27.0973 16.014 25.3142 -50.8324 15.1011 -1.82394 -15.4837 31.0245 -0.0234356 -6.64465 -6.70297 2.12042 13.5349 
115.817 93.5693 -117.192 -72.8661 -47.5094 -79.0401 179.518 12.5993 83.6141 -28.2873 19.5448 0.743318 63.4332 12.217 19.7767 54.4588 11.8044 6.70822 163.95 41.6164 92.4925 -70.1014 -11.1887 1.81496 68.737 -7.81073 6.53957 42.0787 -19.7977 -7.39491 -0.414248 9.66512 -89.7041 7.5452 -0.698695 0.618972 -4.12572 -0.670772 0.649111 -26.6618 -0.852427 0.380365 -6.64921 -0.852435 0.380352 95.5414 -50.4585 -92.2242 25.1567 2.38047 -17.6732 4.15886 -6.77986 -6.82493 -12.2685 -0.793594 2.40952 -86.7085 -53.438 84.1952 -11.9191 -12.2275 -25.3536 19.3498 35.9449 -42.3813 11.5766 -1.27474 -14.0277 27.6628 -1.17869 -6.28598 -2.87384 1.15701 13.7803 
121.374 95.4983 -121.476 -74.6636 -43.1597 -76.3605 179.301 16.3243 86.9257 -27.8496 16.5777 1.56864 64.2395 9.42468 17.7326 48.8637 9.23921 7.46052 168.845 22.3943 96.0965 -65.7586 -5.94498 0.38497 68.7251 -6.06431 12.0955 40.0959 -17.2216 -8.75499 0.169595 9.24381 -90.0338 8.38802 0.323645 -0.0911514 -3.28286 0.319317 -0.10531 -25.8187 0.336078 0.0103317 -5.80601 0.336079 0.01034 96.7916 -48.4505 -90.5141 24.6538 -8.66738 -19.8779 1.43632 -6.18777 -16.371 -7.41682 -0.20956 -2.31845 -85.5742 -55.174 86.0653 -10.3923 -13.4208 -13.0625 6.56217 44.3439 -25.4034 10.8367 -1.122 -13.2191 22.9183 -0.821463 -7.00042 -4.28764 1.31917 12.8966 
127.07 96.0556 -126.405 -76.2904 -38.946 -80.2011 -179.827 20.8505 85.5029 -27.384 14.5021 -0.881767 62.6792 7.51932 17.1951 44.2756 6.86088 5.93294 173.993 9.27113 93.3187 -44.7971 -9.90605 -0.784769 64.3927 0.768923 15.7289 39.1073 -14.7053 -4.81814 0.42199 8.9871 -89.679 8.89671 0.984674 0.570335 -2.774 1.00883 0.526438 -25.3099 0.767752 0.83991 -5.29723 0.767757 0.8399 97.0878 -49.2868 -89.957 23.1284 -14.5685 -19.1597 -8.40944 -8.13856 -36.3146 -4.64809 -0.0503068 -4.25072 -84.8565 -54.4105 86.9951 -11.7122 -19.4692 -2.1286 11.202 68.6053 -20.8386 6.83376 -0.808292 -13.4315 27.0468 -0.677658 -8.77069 -8.09611 1.83263 14.6737 
133.313 96.3359 -131.328 -76.3541 -39.0378 -82.383 179.505 25.5744 83.8026 -25.5917 13.5346 -1.67242 59.0235 4.68961 16.1788 41.5138 5.5196 5.32276 173.507 4.59179 91.2727 -29.4402 -3.19986 -1.18109 68.3414 2.37742 23.0679 35.1885 -8.53771 -0.198929 0.465472 8.93158 -89.6679 9.00744 1.07674 0.58255 -2.66318 1.10134 0.534588 -25.1997 0.851883 0.879235 -5.18705 0.851884 0.87923 97.1083 -49.2842 -89.926 21.666 -17.0121 -20.0072 -10.2199 -2.93583 -50.7264 -15.6236 -0.505825 -1.61965 -84.6897 -54.7148 87.2707 -14.5449 -27.168 0.0464029 3.42089 82.9807 -5.46591 2.02531 -0.382721 -12.8911 29.0489 -0.520337 -7.21361 -8.08618 1.50334 15.7505 
139.209 96.2473 -136.252 -76.0994 -39.887 -82.0665 -178.649 31.261 84.4937 -27.1304 14.2907 -2.88011 58.7234 2.79829 9.63625 43.5561 6.80815 8.97852 173.334 5.7959 93.2396 -25.1336 -0.27823 -0.500724 75.2085 -5.22334 17.736 34.269 -7.14076 1.67514 0.594156 8.71772 -89.9301 9.43849 1.21625 0.0474568 -2.23191 1.21718 -0.00614455 -24.7712 1.14576 0.410846 -4.75857 1.14577 0.410842 96.984 -49.7507 -90.0723 21.5842 -16.7352 -19.324 -12.0374 -1.60008 -57.0769 -15.7711 -0.660435 -0.333595 -83.6719 -55.1538 88.7711 -18.2401 -31.2692 -4.7083 2.65875 87.4728 0.100189 -2.4164 0.118661 -13.5738 26.2795 -0.882538 -7.57715 -7.2427 1.21654 15.8525 
143.477 95.8667 -140.035 -78.8392 -43.0065 -84.0686 -177.044 33.4938 84.2919 -35.9865 16.6921 -2.61133 57.6886 1.24127 6.08312 52.6729 12.428 14.4064 172.937 6.24633 93.9358 -25.0582 1.08209 -0.106676 79.268 -9.21901 13.211 31.574 -3.65826 2.22605 0.387075 8.64268 -90.0512 9.58957 0.748684 -0.158895 -2.08118 0.740971 -0.191696 -24.6181 0.761808 0.0734717 -4.60545 0.76183 0.0734779 97.3416 -49.9641 -89.4948 22.3736 -19.168 -17.9645 -13.5458 -3.59239 -51.9822 -11.5069 -0.295676 -2.22133 -84.1123 -54.4095 88.0655 -19.1257 -27.8216 -6.25015 -0.0489588 88.0194 0.00549297 -4.18407 0.237499 -14.7454 25.3721 -1.17052 -8.45317 -9.42351 0.927305 15.2151 
146.185 96.3193 -142.085 -83.1607 -45.1182 -86.7132 -175.815 29.2429 84.3605 -49.1529 13.5565 -0.452802 59.0437 6.32837 10.6169 51.7111 11.8748 14.1876 172.678 6.40154 93.7602 -28.2255 1.54358 -0.181351 80.2914 -6.31148 14.7934 29.2895 -0.737563 2.35075 0.247955 8.42996 -90.1312 10.0144 0.434554 -0.297642 -1.65648 0.421042 -0.316496 -24.1921 0.503916 -0.153283 -4.17948 0.503905 -0.153293 96.6996 -51.0408 -90.3762 24.4431 -20.243 -13.432 -11.9976 -9.42004 -40.9049 -11.885 -0.41764 -1.15031 -83.8609 -53.6385 88.3476 -21.2775 -24.6995 -10.1554 -2.02577 82.9224 0.0918684 0.204272 -0.153711 -13.5093 22.951 -0.730636 -6.67253 -11.8783 0.519091 12.5198 
148.588 96.8628 -143.188 -85.5548 -45.6628 -88.5564 -177.921 19.1496 84.818 -46.1598 10.6769 1.12945 59.241 7.35417 11.1824 52.923 12.7009 14.9117 172.928 6.86134 93.3784 -28.7828 0.765831 -0.429451 77.803 -6.62262 12.1435 30.0241 -1.67992 2.79629 0.2289 8.02137 -90.0733 10.8303 0.421885 -0.187702 -0.840557 0.413223 -0.206092 -23.3762 0.458805 -0.0522266 -3.36356 0.45879 -0.0522342 97.0106 -51.9053 -89.8158 27.2526 -16.2863 -9.97422 -5.42335 -15.9471 -25.2925 -13.0614 -0.536025 -0.440647 -83.7769 -53.9252 88.4984 -22.4461 -21.6231 -13.8804 -4.70324 71.5276 1.27542 1.63863 -0.418357 -14.5477 18.5617 -0.92782 -7.53356 -11.4336 0.297159 12.8846 
150.46 97.3994 -143.747 -85.8462 -46.6059 -85.6763 179.725 3.60839 88.4469 -19.2892 15.8869 2.11195 57.4181 7.98452 14.5886 53.4366 11.2481 6.38468 173.754 6.14066 96.1296 -25.7168 3.60913 -0.253576 75.9773 -5.82934 13.88 29.1899 -0.604888 2.0812 0.026847 7.56827 -90.3987 11.7361 -0.133813 -0.78078 0.0649767 -0.168037 -0.774137 -22.4683 0.107013 -0.784904 -2.45566 0.107028 -0.784893 96.7872 -52.0393 -90.1398 28.2363 -8.58624 -9.17555 3.03361 -18.2657 -9.07405 -12.4258 -0.876623 3.10844 -83.17 -54.3562 89.4156 -22.9133 -17.7761 -15.1161 4.96461 61.3781 -12.8521 5.27598 -0.762287 -14.3942 15.8262 -0.293419 -8.76857 -11.3288 0.982063 14.2577 
152.083 98.7703 -144.893 -84.3437 -48.9763 -83.5759 -178.323 0.11859 89.8063 -8.24121 18.9447 2.19473 59.6158 4.90086 10.7618 43.1956 6.21811 4.22606 174.679 5.17311 97.2348 -18.6543 4.53272 -0.0667083 70.5167 -4.32095 11.6681 29.0573 -0.43694 2.1187 -0.294876 6.96621 -90.4387 12.9404 -0.796456 -0.7891 1.26948 -0.830394 -0.753293 -21.265 -0.522476 -0.991966 -1.25233 -0.522471 -0.991968 97.4898 -53.0066 -88.9899 27.6956 -0.779729 -6.49014 6.3084 -19.0781 -0.494072 -12.4097 -1.12558 5.48335 -82.708 -54.3785 90.0831 -24.0901 -13.592 -16.2541 8.96369 56.5347 -20.5069 4.85653 -0.601396 -12.8207 12.5575 0.00578804 -6.52093 -13.2902 0.663186 9.53392 
153.938 99.3172 -145.703 -84.8718 -49.6483 -84.856 -178.226 0.974659 89.0368 -7.74004 19.9508 1.09114 59.3294 3.96169 10.2207 40.9157 4.95798 0.827975 174.265 6.02533 95.7351 -18.7613 5.82205 -0.291654 70.7713 -1.97499 13.8786 27.0288 2.17802 1.9789 -0.214597 6.76226 -90.174 13.3478 -0.50954 -0.280633 1.67688 -0.521413 -0.25794 -20.8585 -0.401659 -0.420807 -0.845864 -0.40165 -0.4208 97.8546 -52.7695 -88.4632 29.852 4.53335 -1.74233 4.47952 -16.5157 -3.11869 -11.8126 -1.06872 5.28144 -83.0042 -53.2856 89.5585 -23.7937 -10.1267 -18.7186 21.8143 58.855 -34.4247 -1.91739 -0.145683 -17.3815 13.6352 -0.997016 -9.20841 -15.0419 -0.00809183 12.3783 
155.717 99.4279 -146.483 -89.3158 -48.3114 -87.4534 -178.681 -0.517001 88.8773 -8.82659 19.7475 1.88981 57.4677 3.75839 12.2758 42.2187 5.5477 1.4193 174.208 4.18819 95.5822 -18.6157 3.76021 -0.288504 70.6016 -1.39392 13.4856 26.1053 3.39295 1.69195 -0.0243893 7.00151 -90.2871 12.8702 -0.185973 -0.55177 1.19919 -0.210055 -0.543058 -21.335 -0.0115481 -0.582152 -1.32237 -0.0115427 -0.582153 96.8211 -52.3973 -90.0547 29.8932 2.05071 -1.11484 2.98977 -16.2633 -5.92591 -6.45579 -0.439337 2.96553 -83.6819 -55.137 88.7555 -21.5461 -8.43907 -18.2229 22.8027 54.7663 -37.9271 0.0279459 -0.364334 -17.338 13.2671 -0.342432 -5.47445 -13.6726 0.0256061 10.2052 
156.983 99.6675 -147.057 -91.0819 -44.5895 -88.6396 -178.2 -1.30391 88.5667 -8.39999 17.1359 1.29642 57.5724 3.46598 12.4728 41.4682 5.28999 2.24967 173.91 4.19945 94.6779 -19.1382 1.44673 -0.124187 70.5841 -0.974296 14.8053 24.6765 5.12704 2.57188 0.0927215 6.95072 -90.3109 12.9721 0.0348605 -0.626092 1.30103 0.00725936 -0.62702 -21.233 0.221409 -0.586676 -1.22039 0.221422 -0.586671 98.4653 -50.7847 -87.6888 30.5634 -3.03197 -5.34101 2.1917 -19.4739 -8.00817 -6.25288 -0.396821 2.40522 -82.3321 -55.2903 90.6933 -23.396 -13.1133 -16.3594 20.1852 59.1076 -33.4419 4.8676 -0.721603 -14.3205 12.2536 0.986731 -4.76304 -15.5089 0.921446 10.2922 
157.832 99.741 -147.617 -92.4406 -43.5659 -89.3418 -177.793 -1.73372 88.7118 -8.33352 16.4085 1.07809 57.6098 3.32554 11.8308 40.9797 5.12288 2.90364 174.094 3.78494 94.6904 -18.8908 0.170554 -0.173276 70.1556 -1.06583 14.579 24.4888 5.42031 2.17358 -0.114238 6.91784 -90.3182 13.0369 -0.37962 -0.589907 1.36589 -0.40523 -0.572637 -21.1684 -0.184788 -0.676724 -1.15573 -0.184799 -0.676731 97.6716 -52.3303 -88.7767 29.221 -4.39286 -7.06307 0.00779733 -16.6717 -14.3369 -9.73402 -0.589255 2.203 -82.3206 -55.4971 90.7256 -23.5462 -14.5729 -13.6209 15.6684 62.8898 -25.4089 1.3165 -0.450804 -15.3271 11.644 1.29308 -7.32135 -15.3057 1.55225 12.7144 
